<svg xmlns="http://www.w3.org/2000/svg" viewBox="0 0 512 512" role="img" aria-labelledby="title desc">
  <title id="title">厚別東バス アプリアイコン</title>
  <desc id="desc">新札幌駅から厚別東方面へ向かうバスを表すアイコン</desc>
  <rect width="512" height="512" rx="104" fill="#006b5f"/>
  <path fill="#f6b84b" d="M80 330h352v54c0 18-14 32-32 32H112c-18 0-32-14-32-32v-54Z"/>
  <path fill="#fff" d="M112 118h288c26 0 48 22 48 48v162H64V166c0-26 22-48 48-48Z"/>
  <path fill="#d9efe6" d="M112 162h288c8 0 14 6 14 14v82H98v-82c0-8 6-14 14-14Z"/>
  <path fill="#2f6fb2" d="M98 278h316v50H98z"/>
  <circle cx="158" cy="384" r="28" fill="#202524"/>
  <circle cx="354" cy="384" r="28" fill="#202524"/>
  <circle cx="158" cy="384" r="11" fill="#eef7f3"/>
  <circle cx="354" cy="384" r="11" fill="#eef7f3"/>
  <path fill="#c8465f" d="M141 207h230v30H141z"/>
  <path fill="#006b5f" d="M160 92h192v36H160z"/>
  <path fill="#fff" d="M167 362h178v18H167z" opacity=".72"/>
</svg>
